<svg width="258" height="71" viewBox="0 0 258 71" fill="none" xmlns="http://www.w3.org/2000/svg">
<g filter="url(#filter0_d_1_45)">
<ellipse cx="128.784" cy="31.5" rx="124.784" ry="31.5" fill="white"/>
<path d="M89.4592 41H85.5046L91.5302 23.5455H96.2859L102.303 41H98.3484L93.9762 27.5341H93.8398L89.4592 41ZM89.212 34.1392H98.5529V37.0199H89.212V34.1392ZM114.923 31.642L111.599 31.8466C111.542 31.5625 111.42 31.3068 111.233 31.0795C111.045 30.8466 110.798 30.6619 110.491 30.5256C110.19 30.3835 109.829 30.3125 109.409 30.3125C108.846 30.3125 108.372 30.4318 107.985 30.6705C107.599 30.9034 107.406 31.2159 107.406 31.608C107.406 31.9205 107.531 32.1847 107.781 32.4006C108.031 32.6165 108.46 32.7898 109.068 32.9205L111.437 33.3977C112.71 33.6591 113.659 34.0795 114.284 34.6591C114.909 35.2386 115.221 36 115.221 36.9432C115.221 37.8011 114.968 38.554 114.463 39.2017C113.963 39.8494 113.275 40.3551 112.4 40.7188C111.531 41.0767 110.528 41.2557 109.392 41.2557C107.659 41.2557 106.278 40.8949 105.25 40.1733C104.227 39.446 103.627 38.4574 103.451 37.2074L107.022 37.0199C107.13 37.5483 107.392 37.9517 107.806 38.2301C108.221 38.5028 108.752 38.6392 109.4 38.6392C110.037 38.6392 110.548 38.517 110.934 38.2727C111.326 38.0227 111.525 37.7017 111.531 37.3097C111.525 36.9801 111.386 36.7102 111.113 36.5C110.841 36.2841 110.42 36.1193 109.852 36.0057L107.585 35.554C106.306 35.2983 105.355 34.8551 104.73 34.2244C104.11 33.5937 103.801 32.7898 103.801 31.8125C103.801 30.9716 104.028 30.2472 104.483 29.6392C104.943 29.0312 105.588 28.5625 106.417 28.233C107.252 27.9034 108.23 27.7386 109.349 27.7386C111.002 27.7386 112.304 28.0881 113.252 28.7869C114.207 29.4858 114.764 30.4375 114.923 31.642ZM123.473 41.2557C122.127 41.2557 120.968 40.983 119.996 40.4375C119.03 39.8864 118.286 39.108 117.763 38.1023C117.24 37.0909 116.979 35.8949 116.979 34.5142C116.979 33.1676 117.24 31.9858 117.763 30.9688C118.286 29.9517 119.022 29.1591 119.971 28.5909C120.925 28.0227 122.044 27.7386 123.328 27.7386C124.192 27.7386 124.996 27.8778 125.74 28.1562C126.49 28.429 127.144 28.8409 127.701 29.392C128.263 29.9432 128.701 30.6364 129.013 31.4716C129.326 32.3011 129.482 33.2727 129.482 34.3864V35.3835H118.428V33.1335H126.064C126.064 32.6108 125.951 32.1477 125.723 31.7443C125.496 31.3409 125.181 31.0256 124.777 30.7983C124.38 30.5653 123.917 30.4489 123.388 30.4489C122.837 30.4489 122.348 30.5767 121.922 30.8324C121.502 31.0824 121.172 31.4205 120.934 31.8466C120.695 32.267 120.573 32.7358 120.567 33.2528V35.392C120.567 36.0398 120.686 36.5994 120.925 37.071C121.169 37.5426 121.513 37.9062 121.956 38.1619C122.4 38.4176 122.925 38.5455 123.533 38.5455C123.936 38.5455 124.306 38.4886 124.641 38.375C124.976 38.2614 125.263 38.0909 125.502 37.8636C125.74 37.6364 125.922 37.358 126.047 37.0284L129.405 37.25C129.235 38.0568 128.885 38.7614 128.357 39.3636C127.834 39.9602 127.158 40.4261 126.328 40.7614C125.505 41.0909 124.553 41.2557 123.473 41.2557ZM138.814 27.9091V30.6364H130.931V27.9091H138.814ZM132.721 24.7727H136.351V36.9773C136.351 37.3125 136.402 37.5739 136.505 37.7614C136.607 37.9432 136.749 38.071 136.931 38.1449C137.118 38.2187 137.334 38.2557 137.578 38.2557C137.749 38.2557 137.919 38.2415 138.09 38.2131C138.26 38.179 138.391 38.1534 138.482 38.1364L139.053 40.8381C138.871 40.8949 138.615 40.9602 138.286 41.0341C137.956 41.1136 137.556 41.1619 137.084 41.179C136.209 41.2131 135.442 41.0966 134.783 40.8295C134.13 40.5625 133.621 40.1477 133.257 39.5852C132.894 39.0227 132.715 38.3125 132.721 37.4545V24.7727ZM141.529 41V23.5455H145.219V31.2415H145.449L151.73 23.5455H156.154L149.676 31.3608L156.23 41H151.816L147.034 33.8239L145.219 36.0398V41H141.529ZM168.857 23.5455H172.547V34.8807C172.547 36.1534 172.243 37.267 171.635 38.2216C171.033 39.1761 170.189 39.9205 169.104 40.4545C168.019 40.983 166.755 41.2472 165.311 41.2472C163.863 41.2472 162.596 40.983 161.51 40.4545C160.425 39.9205 159.581 39.1761 158.979 38.2216C158.377 37.267 158.076 36.1534 158.076 34.8807V23.5455H161.766V34.5653C161.766 35.2301 161.911 35.821 162.201 36.3381C162.496 36.8551 162.911 37.2614 163.445 37.5568C163.979 37.8523 164.601 38 165.311 38C166.027 38 166.65 37.8523 167.178 37.5568C167.712 37.2614 168.124 36.8551 168.414 36.3381C168.709 35.821 168.857 35.2301 168.857 34.5653V23.5455Z" fill="black"/>
</g>
<defs>
<filter id="filter0_d_1_45" x="0" y="0" width="257.569" height="71" filterUnits="userSpaceOnUse" color-interpolation-filters="sRGB">
<feFlood flood-opacity="0" result="BackgroundImageFix"/>
<feColorMatrix in="SourceAlpha" type="matrix" values="0 0 0 0 0 0 0 0 0 0 0 0 0 0 0 0 0 0 127 0" result="hardAlpha"/>
<feOffset dy="4"/>
<feGaussianBlur stdDeviation="2"/>
<feComposite in2="hardAlpha" operator="out"/>
<feColorMatrix type="matrix" values="0 0 0 0 0 0 0 0 0 0 0 0 0 0 0 0 0 0 0.25 0"/>
<feBlend mode="normal" in2="BackgroundImageFix" result="effect1_dropShadow_1_45"/>
<feBlend mode="normal" in="SourceGraphic" in2="effect1_dropShadow_1_45" result="shape"/>
</filter>
</defs>
</svg>
